PathFileType	4	(X/Y/Z)	SUBJ94_3_walk_RCNL2025.trc
DataRate	CameraRate	NumFrames	NumMarkers	Units	OrigDataRate	OrigDataStartFrame	OrigNumFrames
100	100	4	25	mm	100	185	368
Frame#	Time	R_Shoulder			L_Shoulder			C7			J_Notch			R_Elbow			L_Elbow			R_Wrist			L_Wrist			R_Asis			L_Asis			Sacral			Thoracic			Sternum			R_Thigh_Lateral			R_Knee_Lateral			R_Shank_Lateral			R_Ankle_Lateral			R_Heel			R_Toe			L_Thigh_Lateral			L_Knee_Lateral			L_Shank_Lateral			L_Ankle_Lateral			L_Heel			L_Toe		
		X1	Y1	Z1	X2	Y2	Z2	X3	Y3	Z3	X4	Y4	Z4	X5	Y5	Z5	X6	Y6	Z6	X7	Y7	Z7	X8	Y8	Z8	X9	Y9	Z9	X10	Y10	Z10	X11	Y11	Z11	X12	Y12	Z12	X13	Y13	Z13	X14	Y14	Z14	X15	Y15	Z15	X16	Y16	Z16	X17	Y17	Z17	X18	Y18	Z18	X19	Y19	Z19	X20	Y20	Z20	X21	Y21	Z21	X22	Y22	Z22	X23	Y23	Z23	X24	Y24	Z24	X25	Y25	Z25
185	1.84000000	-594.349426	1259.665161	434.341553	-579.780884	1260.459229	57.629440	-645.177124	1348.288818	242.658707	-537.386902	1250.598511	243.208542	-645.412109	980.851929	516.267578	-620.616638	983.031494	-22.023062	-568.536926	767.237915	512.476120	-463.571136	813.262146	-24.892171	-558.715271	877.784302	373.251038	-532.885986	866.493774	149.246613	-732.863525	933.764587	232.375641	-720.627014	1149.188599	234.064087	-511.500031	1058.165894	260.226593	-512.344543	548.420044	440.873871	-483.231079	460.662476	387.349091	-523.385193	285.648071	422.637177	-581.504944	93.140602	340.770569	-623.652161	103.135620	291.437347	-458.821716	47.552876	313.156982	-621.603516	528.346924	64.890480	-648.869507	432.163818	121.928833	-666.876831	249.995850	68.916054	-719.081543	54.600838	171.719925	-762.018799	46.051498	218.832458	-597.471985	38.829655	199.011627
186	1.85000000	-583.955322	1257.814209	434.972778	-568.253967	1259.183105	58.173199	-633.961426	1346.949707	243.179413	-526.306946	1249.077148	243.727921	-637.743347	979.551392	516.446472	-607.913452	981.930664	-22.298689	-564.992218	764.438080	515.009140	-446.641876	816.175507	-21.981769	-546.856201	876.575012	373.268738	-521.888672	864.833252	149.107254	-721.625977	932.224243	233.019623	-709.592041	1147.882324	234.221436	-500.518372	1056.661987	260.535583	-499.396088	547.579712	440.770477	-469.728699	460.084961	386.964539	-499.588562	282.350922	422.953705	-543.431824	86.077950	341.564545	-586.128052	93.547615	292.248047	-418.198242	48.056984	313.600769	-615.898193	527.656250	64.795456	-645.150330	431.907471	121.845482	-665.202148	249.938263	68.844177	-718.988098	54.904480	171.956909	-761.856628	46.618301	219.196808	-597.431152	38.766670	198.971436
187	1.86000000	-573.458557	1255.790161	435.655640	-556.737854	1257.696289	58.740025	-622.704895	1345.448608	243.764481	-515.166260	1247.354492	244.258072	-629.995911	978.130127	516.741577	-595.391785	980.642944	-22.484312	-561.204071	761.713684	517.622177	-430.136932	818.873444	-18.995106	-534.839111	875.103699	373.303070	-510.875366	863.081177	148.935760	-710.333130	930.476990	233.830353	-698.512512	1146.418701	234.493958	-489.475464	1054.941772	260.833771	-487.149780	546.102783	440.758942	-456.816742	459.014587	386.666718	-476.313416	279.243896	423.399353	-505.607208	79.984505	342.518402	-548.719055	84.851059	293.219543	-378.231750	49.640499	314.131836	-610.106262	526.917908	64.646042	-641.109131	431.619568	121.761131	-663.417175	249.864761	68.785301	-718.895691	55.276554	172.239578	-761.686829	47.277885	219.626419	-597.394714	38.711147	198.925644
188	1.87000000	-562.843872	1253.620239	436.399628	-545.228027	1256.029907	59.340225	-611.401001	1343.811890	244.425064	-503.956421	1245.458740	244.809875	-622.141174	976.606934	517.154053	-583.051270	979.193909	-22.564009	-557.141266	759.070160	520.307281	-414.079926	821.330414	-15.951679	-522.660767	873.404907	373.350952	-499.836273	861.265747	148.730087	-698.974426	928.559814	234.800766	-687.377747	1144.823242	234.888824	-478.363129	1053.033813	261.130493	-475.546753	544.034607	440.834534	-444.401703	457.507935	386.454163	-453.616791	276.376984	423.968597	-468.395660	74.904945	343.636322	-511.800171	77.121170	294.360901	-339.275299	52.258011	314.753998	-604.172363	526.144958	64.462708	-636.696655	431.295654	121.692200	-661.470459	249.774353	68.758644	-718.796631	55.730782	172.563858	-761.509827	48.045765	220.109238	-597.353760	38.665611	198.880936
